# xmcd CD database file
#
# Track frame offsets:
#	150
#	19101
#	30415
#	46869
#	59172
#	76254
#	93407
#	107681
#	122705
#	134703
#	146286
#	158050
#	172532
#	182295
#	194941
#
# Disc length: 2768 seconds
#
# Revision: 0
# Processed by: cddbd v1.5.2PL0 Copyright (c) Steve Scherf et al.
# Submitted via: CDex 1.50
#
DISCID=c10ace0f
DTITLE=3 Dayz Whizkey - Black Water
DYEAR=2013
DGENRE=Blues
TTITLE0=3 Dayz Whizkey - The Gambler
TTITLE1=3 Dayz Whizkey - All night long
TTITLE2=3 Dayz Whizkey - Bad luck women
TTITLE3=3 Dayz Whizkey - Rock and Roll
TTITLE4=3 Dayz Whizkey - Now that you're gone
TTITLE5=3 Dayz Whizkey - The King
TTITLE6=3 Dayz Whizkey - Black Rider
TTITLE7=3 Dayz Whizkey - Make my day
TTITLE8=3 Dayz Whizkey - Blues is King
TTITLE9=3 Dayz Whizkey - Rattlesnake Brake
TTITLE10=3 Dayz Whizkey - No escape from the night
TTITLE11=3 Dayz Whizkey - Mick Jagger
TTITLE12=3 Dayz Whizkey - Devil woman
TTITLE13=3 Dayz Whizkey - Love's gone bad
TTITLE14=3 Dayz Whizkey - Got no time
EXTD=YEAR: 2013
EXTT0=
EXTT1=
EXTT2=
EXTT3=
EXTT4=
EXTT5=
EXTT6=
EXTT7=
EXTT8=
EXTT9=
EXTT10=
EXTT11=
EXTT12=
EXTT13=
EXTT14=
PLAYORDER=
